<svg xmlns="http://www.w3.org/2000/svg" width="51.763" height="52" viewBox="0 0 51.763 52"><defs><style>.a{fill:#fff;}</style></defs><g transform="translate(-92.534 -254.782)"><path class="a" d="M119.384,339.212c1.877,2.489,3.744,4.919,5.537,7.4a1.4,1.4,0,0,1-.055,1.288q-3.679,5.141-7.478,10.2a1.9,1.9,0,0,1-1.257.651c-6.339.374-12.655.258-18.822-1.467a17.775,17.775,0,0,1-3.857-1.736c-1.048-.591-1.217-1.468-.419-2.526,3.392-4.5,6.731-9.039,10.127-13.535a5,5,0,0,1,1.656-1.4,2.072,2.072,0,0,1,1.516.024,6.009,6.009,0,0,1,1.295,1,2.584,2.584,0,0,0,3.5.056c2.21-1.648,2.245-1.692,4.385-.032A3.142,3.142,0,0,0,119.384,339.212Z" transform="translate(0 -74.165)"/><path class="a" d="M316.408,472.187c3.808,2.608,3.808,2.608,7.815.025.7.506,1.428,1.055,2.184,1.56.413.275.906.714,1.312.665,1.5-.184,2.072.866,2.771,1.813,1.659,2.249,3.343,4.481,4.988,6.74.91,1.249.87,1.87-.557,2.458a26.3,26.3,0,0,1-5.749,1.722,45.267,45.267,0,0,1-17.752-.54,16.218,16.218,0,0,1-3.287-1.341.867.867,0,0,1-.359-1.458C310.646,479.98,313.5,476.115,316.408,472.187Z" transform="translate(-191.793 -193.96)"/><path class="a" d="M145.287,540.436c-.441.633-.663.972-.906,1.3-1.335,1.782-1.168,3.435.684,4.775a2.819,2.819,0,0,1,1.369,2.353c.03,2.055.009,4.111.009,6.27a10.18,10.18,0,0,1-1.112.128c-5.68.009-11.361-.013-17.041.026-1.289.009-1.842-.491-1.836-1.773.021-4.626.007-9.253.012-13.879a8.024,8.024,0,0,1,.116-.868C132.658,540.414,138.822,540.644,145.287,540.436Zm-12.623,8.289c2.936,0,2.936,0,2.943-1.867.009-2.5-.985-3.867-2.844-3.907-1.88-.04-2.926,1.317-2.929,3.8C129.831,548.722,129.831,548.722,132.664,548.725Z" transform="translate(-30.263 -253.356)"/><path class="a" d="M334.636,627.371a52.117,52.117,0,0,0,22.077.1c0,3.639.027,7.158-.017,10.677-.012,1.017-.857,1.033-1.618,1.033H343.8c-2.612,0-5.225-.017-7.837.007-.92.008-1.525-.249-1.523-1.29.007-3.3.005-6.6.017-9.9A2.918,2.918,0,0,1,334.636,627.371Zm4.435,6.864c2.246-.022,2.271-.04,2.265-1.611-.007-1.754-.909-2.852-2.292-2.791-1.36.06-2.072,1.17-2.145,2.963C336.821,634.7,338.154,634.141,339.07,634.235Zm12.343,0c2.29-.008,2.3-.014,2.285-1.656-.015-1.666-.872-2.73-2.206-2.736-1.38-.007-2.23,1.092-2.215,2.861C349.291,634.211,349.329,634.239,351.414,634.232Z" transform="translate(-215.823 -332.408)"/><path class="a" d="M221.476,260.932c1.445-2.015,2.828-3.991,4.285-5.91.17-.224.992-.318,1.108-.165,2.028,2.673,3.993,5.393,5.972,8.1l-.336.395c-.584-.4-1.179-.79-1.751-1.209-2.186-1.605-2.835-1.653-4.912.123-1.015.868-1.784,1.045-2.73-.008A13.356,13.356,0,0,0,221.476,260.932Z" transform="translate(-115.037)"/><path class="a" d="M412.24,407.9a3.359,3.359,0,0,0-3.533.566c-2.193,1.666-2.209,1.644-4.3-.485.613-.869,1.232-1.759,1.865-2.641.6-.843,1.222-1.676,2.016-2.762Z" transform="translate(-278.244 -131.855)"/></g></svg>