<svg xmlns="http://www.w3.org/2000/svg" xmlns:xlink="http://www.w3.org/1999/xlink" width="85" height="51" viewBox="0 0 85 51"><defs><style>.a{fill:#fff;}.b{clip-path:url(#a);}</style><clipPath id="a"><rect class="a" width="85" height="51" transform="translate(0.262 0)"/></clipPath></defs><g transform="translate(-230.434 -459.852)"><path class="a" d="M411.95,588.934V566.128L398.411,556.2l-13.538,9.928v22.805h3.008V578.4a1.5,1.5,0,0,1,1.5-1.5h9.025a1.5,1.5,0,0,1,1.5,1.5v10.53Zm-1.5-10.53v6.017a1.5,1.5,0,0,1-1.5,1.5h-6.017a1.5,1.5,0,0,1-1.5-1.5V578.4a1.5,1.5,0,0,1,1.5-1.5h6.017a1.5,1.5,0,0,1,1.5,1.5Zm-12.035-4.513a6.017,6.017,0,1,1,6.018-6.017,6.017,6.017,0,0,1-6.018,6.017Zm0,0" transform="translate(-125.484 -78.216)"/><path class="a" d="M446.843,605.255a3.009,3.009,0,1,1-3.009-3.008,3.009,3.009,0,0,1,3.009,3.008Zm0,0" transform="translate(-170.907 -115.597)"/><path class="a" d="M362.4,629.251v-8.563l-1.5,1.1v7.462Zm0,0" transform="translate(-106.016 -130.568)"/><rect class="a" width="6.017" height="9.026" transform="translate(265.406 501.692)"/><rect class="a" width="3.008" height="3.009" transform="translate(278.945 501.692)"/><path class="a" d="M379.409,542.161a1.181,1.181,0,0,0,.47-2.13L357.314,524.1l-22.564,15.93a1.181,1.181,0,0,0,.474,2.129,1.205,1.205,0,0,0,.9-.211l20.3-14.892a1.5,1.5,0,0,1,1.778,0l20.3,14.892a1.2,1.2,0,0,0,.907.211Zm0,0" transform="translate(-84.387 -52.159)"/><path class="a" d="M546.245,629.251V621.79l-1.5-1.1v8.563Zm0,0" transform="translate(-255.266 -130.568)"/><path class="a" d="M593.127,618.231a4.171,4.171,0,0,1-.429,1.133v1.876h3.009v-3.009Zm0,0" transform="translate(-294.198 -128.573)"/><path class="a" d="M526.006,502.192l-13.539-9.937-11.187,8.214,5.191,3.665c0-.071-.021-.137-.021-.207a6.017,6.017,0,1,1,7.822,5.716l2.947,2.081a4.2,4.2,0,0,1,1.158,1.234H523a1.5,1.5,0,0,1,1.5,1.5v6.017a1.5,1.5,0,0,1-1.5,1.5H516.98a1.5,1.5,0,0,1-1.5-1.5v-1.2a3.8,3.8,0,0,1-1.5-.028v5.744h12.035Zm0,0" transform="translate(-219.984 -26.304)"/><g transform="translate(230.173 459.852)"><g class="b" transform="translate(0 0)"><path class="a" d="M550.758,541.306a3.008,3.008,0,1,1-3.009-3.009,3.009,3.009,0,0,1,3.009,3.009Zm0,0" transform="translate(-485.438 -523.534)"/><path class="a" d="M515.113,478.218a1.176,1.176,0,0,0,.481-2.133l-22.564-15.929-15.693,11.077,1.915,1.354,12.887-9.465a1.5,1.5,0,0,1,1.781,0l20.293,14.892a1.178,1.178,0,0,0,.9.2Zm0,0" transform="translate(-430.72 -460.1)"/></g></g><path class="a" d="M283.968,514.458a1.5,1.5,0,0,1,1.5-1.5h3.119a4.236,4.236,0,0,1,1.157-1.233l2.944-2.077a6,6,0,1,1,7.822-5.716c0,.071-.018.138-.021.209l5.191-3.669L294.5,492.254l-13.539,9.938v22.8h3.009Zm0,0" transform="translate(-41.125 -26.304)"/><path class="a" d="M318.949,621.51a4.154,4.154,0,0,1-4.314-1.775,4.237,4.237,0,0,1-.627-1.5h-1.076v9.026h6.017Zm0,0" transform="translate(-67.081 -128.573)"/><g transform="translate(230.173 459.852)"><g class="b" transform="translate(0 0)"><path class="a" d="M342.929,541.306a3.009,3.009,0,1,1-3.008-3.009,3.008,3.008,0,0,1,3.008,3.009Zm0,0" transform="translate(-316.721 -523.534)"/><path class="a" d="M254.3,463.12l12.888,9.466,1.915-1.354-15.693-11.075-22.565,15.935a1.192,1.192,0,0,0-.3,1.629,1.22,1.22,0,0,0,1.7.279l20.279-14.885a1.5,1.5,0,0,1,1.777.006Zm0,0" transform="translate(-230.209 -460.1)"/></g></g></g></svg>