<svg xmlns="http://www.w3.org/2000/svg" width="53.926" height="53.82" viewBox="0 0 53.926 53.82"><defs><style>.a{fill:#fff;}</style></defs><g transform="translate(-815 -382.75)"><path class="a" d="M868.926,382.75v53.82H815V382.75ZM824.6,398.612v6.266a1.28,1.28,0,0,0,1.431-.466c.75-.81,1.544-1.581,2.345-2.341a1.1,1.1,0,0,1,.675-.28c1.263-.027,2.527,0,3.791-.021a.784.784,0,0,1,.695.35q6.419,8.027,12.844,16.05a1.67,1.67,0,0,1,.3.893c.044.7-.011,1.4.027,2.1a1.268,1.268,0,0,0,.293.721,10.124,10.124,0,0,0,1.451,1.446,3.451,3.451,0,0,1,1.426,3.438,32.472,32.472,0,0,0-.023,3.4h-6.28v3.219h22.151V420.672h-6.408v-6.235c-.833-.1-.833-.1-1.365.426-.807.805-1.6,1.621-2.427,2.408a1.026,1.026,0,0,1-.632.259c-1.281.024-2.563.027-3.844,0a.954.954,0,0,1-.636-.322q-5.826-7.222-11.624-14.467a7.819,7.819,0,0,1-1.5-2,8.116,8.116,0,0,1-.073-2.5.3.3,0,0,1,0-.053.874.874,0,0,0-.344-.819c-.844-.818-1.681-1.642-2.488-2.5a1.249,1.249,0,0,1-.313-.763c-.031-1.453-.017-2.908-.019-4.362,0-.185,0-.369,0-.609h6.294v-3.191h-22.17v12.67Zm12.676-6.3a1.268,1.268,0,0,0,.414,1.392c.828.756,1.611,1.563,2.382,2.377a1.214,1.214,0,0,1,.3.72c.038.751.032,1.507.006,2.259a1.413,1.413,0,0,0,.344,1c3.593,4.464,7.191,8.925,10.743,13.422a1.92,1.92,0,0,0,1.908.927,1.415,1.415,0,0,0,.96-.4c.786-.825,1.614-1.609,2.408-2.427a1.027,1.027,0,0,1,.82-.351c1.474.02,2.949.008,4.423.008h.543v6.268h3.215V385.936H843.516v6.38ZM846.682,427c.049-.886.049-.885-.513-1.439-.225-.221-.45-.443-.672-.667-.643-.646-1.532-1.191-1.857-1.97a8.733,8.733,0,0,1-.109-2.7,1.738,1.738,0,0,0-.323-.939c-3.581-4.5-7.2-8.964-10.76-13.475a1.92,1.92,0,0,0-1.918-.9,1.354,1.354,0,0,0-.914.386q-1.22,1.271-2.5,2.487a1.119,1.119,0,0,1-.673.285c-.912.033-1.825.016-2.738.017H821.4V401.8h-3.2v31.587h22.195V427Z" transform="translate(0)"/><path class="a" d="M1031.082,421.14l9.98,9.962H1035.8v6.279h-9.483v-6.257h-5.236Zm1.5,13.112v-3.109h-3.093v3.109Zm.794-6.317-2.326-2.322-2.329,2.322Z" transform="translate(-177.139 -32.999)"/><path class="a" d="M847.684,594.355l9.964,9.964h-5.274v6.3H842.91v-6.273h-5.234Zm1.508,10.008h-3.11v3.092h3.11Zm-1.524-5.552-2.339,2.331h4.682Z" transform="translate(-19.492 -181.889)"/></g></svg>