<svg xmlns="http://www.w3.org/2000/svg" xmlns:xlink="http://www.w3.org/1999/xlink" width="51.897" height="59" viewBox="0 0 51.897 59"><defs><style>.a{fill:none;stroke:#fff;stroke-width:2px;}.b{clip-path:url(#a);}</style><clipPath id="a"><rect class="a" width="51.897" height="59" transform="translate(-2 -8)"/></clipPath></defs><g transform="translate(-519 -513)"><path class="a" d="M567.26,555.164H523.2a2.2,2.2,0,0,0,0,4.407H567.26a2.2,2.2,0,1,0,0-4.407Zm0,0" transform="translate(0 9.89)"/><g transform="translate(521 521)"><g class="b"><path class="a" d="M525.338,555.668a2.2,2.2,0,0,0,0,4.407h38.547a2.2,2.2,0,1,0,0-4.407h-.549V535.842h.549a1.1,1.1,0,1,0,0-2.2H525.338a1.1,1.1,0,0,0,0,2.2h.549v19.826Zm33.592-19.826v19.826h-6.609V535.842Zm-11.012,0v19.826H541.31V535.842Zm-17.623,0H536.9v19.826h-6.607Z" transform="translate(-520.381 -517.341)"/><path class="a" d="M523.2,538.1h44.079a2.449,2.449,0,0,0,2.206-2.634,2.64,2.64,0,0,0-1.492-2.49l-21.86-11.745a1.875,1.875,0,0,0-1.8,0L522.3,533.065a2.789,2.789,0,0,0-1.249,2.953A2.332,2.332,0,0,0,523.2,538.1Zm0,0" transform="translate(-521 -525.832)"/></g></g></g></svg>