<svg xmlns="http://www.w3.org/2000/svg" width="54" height="46.375" viewBox="0 0 54 46.375"><defs><style>.a{fill:#fff;}</style></defs><g transform="translate(-86.404 -121.676)"><path class="a" d="M622.446,459.132c-1.232.336-2.461.685-3.7,1.005a51.491,51.491,0,0,1-12.127,1.689c-.119,0-.238,0-.418,0,0-.983-.008-1.927,0-2.87a10.9,10.9,0,0,0-.39-3.649,8.261,8.261,0,0,0-5.44-5.448l-.476-.159a6.737,6.737,0,0,0,2.288-5.761,7.245,7.245,0,0,0-3.29-5.355,15.375,15.375,0,0,1,2.886-.61c3.459-.074,6.936-.241,10.376.025a11.347,11.347,0,0,1,9.952,8.791c.139.557.224,1.128.334,1.692Z" transform="translate(-482.042 -297.392)"/><path class="a" d="M109.967,438.959a6.877,6.877,0,0,0-1.034,11l-.678.241a8.343,8.343,0,0,0-5.593,7.791c-.021,1.349,0,2.7,0,4.01-.973,0-1.9.05-2.821-.008a56.121,56.121,0,0,1-12.946-2.488.57.57,0,0,1-.487-.653c.018-3-.008-6.01.014-9.014A11.6,11.6,0,0,1,95.695,438.4a11.448,11.448,0,0,1,2.351-.255q4.348-.017,8.7.059A8.8,8.8,0,0,1,109.967,438.959Z" transform="translate(0 -297.661)"/><path class="a" d="M203.605,139.847a9.085,9.085,0,1,1,9.095-9.066A9.066,9.066,0,0,1,203.605,139.847Z" transform="translate(-101.712 -0.001)"/><path class="a" d="M590.686,139.846a9.085,9.085,0,1,1,9.1-9.056A9.072,9.072,0,0,1,590.686,139.846Z" transform="translate(-465.799)"/><path class="a" d="M379.96,664.793c0-2.41-.17-4.758.041-7.071a6.9,6.9,0,0,1,6.458-6.044,41.818,41.818,0,0,1,6.47.079,7.015,7.015,0,0,1,6.108,6.693c.058,1.966.007,3.934.031,5.9,0,.33-.182.418-.405.521a17.5,17.5,0,0,1-5.163,1.392,31.5,31.5,0,0,1-13.354-1.4A1.833,1.833,0,0,1,379.96,664.793Z" transform="translate(-276.052 -498.429)"/><path class="a" d="M457.495,461.9a5.623,5.623,0,1,1-5.582-5.666A5.606,5.606,0,0,1,457.495,461.9Z" transform="translate(-338.463 -314.675)"/></g></svg>